PathFileType	4	(X/Y/Z)	C:\Users\WrightLab\Desktop\Jo\P3_24.trc
DataRate	CameraRate	NumFrames	NumMarkers	Units	OrigDataRate	OrigDataStartFrame	OrigNumFrames
100.00	100.00	       8	19	mm	100.00	1	       609
Frame#	Time	Headset_Front			Headset_Back			Headset_Left			Headset_Right			Left_Shoulder			Right_Shoulder			Sternum			C7			Left Elbow			Right Elbow			Left Wrist			Right Wrist			Left ASIS			Right ASIS			S2			Left Knee			Right Knee			Left Ankle			Right Ankle			
		X1	Y1	Z1	X2	Y2	Z2	X3	Y3	Z3	X4	Y4	Z4	X5	Y5	Z5	X6	Y6	Z6	X7	Y7	Z7	X8	Y8	Z8	X9	Y9	Z9	X10	Y10	Z10	X11	Y11	Z11	X12	Y12	Z12	X13	Y13	Z13	X14	Y14	Z14	X15	Y15	Z15	X16	Y16	Z16	X17	Y17	Z17	X18	Y18	Z18	X19	Y19	Z19	

1	0.000				-46.04885	1673.69055	2429.80054	-168.12152	1597.81470	2350.10107							118.08389	1394.80933	2471.79956				-61.62396	1452.92603	2487.96191	-297.44208	1053.16858	2438.21851	194.70198	1055.12244	2541.15356	-265.10312	867.43842	2344.62036	188.60820	855.44818	2435.77612							-75.03109	1004.75055	2601.64404	-151.14079	521.76514	2283.20264	53.76639	490.15088	2514.32324	-150.38287	192.50793	2344.82910	16.88215	176.37921	2635.97974	
2	0.010				-45.16466	1673.25562	2425.23901	-168.14784	1597.41589	2346.53247				-240.71451	1387.06384	2412.50610	118.23393	1394.05798	2468.46924				-62.08767	1452.07629	2484.62671	-297.47769	1052.57556	2434.87451	194.78427	1054.48633	2538.14087	-265.45642	866.62360	2342.16821	188.11229	854.74457	2433.03125							-74.46046	1003.48486	2597.44849	-150.93712	521.31537	2282.78442	54.02387	490.09070	2513.75464	-148.29805	190.06512	2330.24072	16.89289	176.50827	2636.10352	
3	0.020				-45.32143	1673.13110	2422.00732	-167.77643	1596.29822	2342.70142				-240.82080	1386.68567	2408.78271	118.40437	1393.30371	2464.12573				-61.50842	1451.61194	2480.57764	-297.64868	1051.71265	2431.01001	194.78545	1053.51270	2533.79370	-265.64304	865.60632	2340.88770	187.51347	854.75653	2428.84399							-74.68355	1003.03253	2593.57202	-150.63495	520.47638	2282.29688	54.15783	489.76956	2513.46240	-147.23436	187.89549	2316.75098	16.82395	176.56123	2635.76880	
4	0.030				-44.64941	1672.06750	2417.64209	-167.83237	1596.09521	2339.92969				-240.76088	1386.13660	2404.61157	118.30111	1393.02502	2460.59058				-62.13924	1450.95142	2477.00952	-297.46967	1051.29944	2427.73071	194.44305	1052.79004	2530.53003	-266.20859	864.52930	2336.81055	187.51019	854.09534	2427.01367							-74.78990	1003.12231	2589.80933	-149.94432	517.21637	2280.02344	54.16025	488.72586	2510.87866	-146.37756	185.97438	2303.89575	16.81618	176.69293	2635.41504	
5	0.040				-44.37029	1671.86816	2414.21069	-167.54051	1595.45654	2335.13550				-240.71722	1385.02344	2399.99829	118.21250	1392.18298	2457.01807				-62.02750	1450.62695	2473.18628	-297.28680	1050.79712	2424.40063	194.28706	1051.96008	2525.68970	-266.64377	863.69080	2335.14868	186.94035	853.47278	2420.27197							-74.55927	1001.93030	2585.10522	-149.50835	516.79962	2279.39282	54.50701	488.70288	2509.78491	-144.21808	184.46150	2290.76099	16.99698	176.85281	2635.13037	
6	0.050				-44.36479	1670.97852	2410.19189	-167.54724	1595.26208	2331.94873				-241.12848	1384.79614	2396.31226	118.19285	1391.87292	2453.13916				-61.80666	1449.62451	2468.23022	-297.41718	1050.51160	2420.97241	193.90747	1051.39661	2522.62500	-266.48334	862.70288	2333.06982	186.62662	852.18634	2417.11426							-74.75698	1001.29706	2581.07715	-148.66904	515.13483	2277.60767	54.52118	487.72260	2507.21338	-143.19777	183.49217	2278.31836	17.04701	176.99768	2635.27295	
7	0.060				-44.20700	1670.35437	2406.66772	-167.52727	1594.57275	2327.74561				-240.87796	1383.50208	2391.47339	118.07799	1390.76123	2449.06372				-62.22289	1448.79370	2464.84570	-297.73651	1049.12280	2416.73560	193.14711	1050.89709	2518.53320	-266.82281	861.34247	2328.72876										-74.97691	1000.87323	2577.03735	-147.76405	513.23987	2275.57593	54.81966	487.59201	2506.49219	-142.47031	182.88551	2266.32056	17.04347	176.99792	2635.27295	
8	0.070				-44.22137	1670.04468	2402.19019	-167.43471	1594.23669	2323.94580				-241.41591	1383.27734	2387.43652	117.68565	1390.11670	2445.22949				-62.54637	1448.27197	2460.75366	-297.67505	1048.12598	2412.94507	192.78687	1049.65222	2514.36743	-266.91287	860.16809	2326.82300	186.21150	850.63086	2408.36206							-75.13763	999.93982	2571.92432	-147.63287	512.73547	2272.80273	54.29670	487.62216	2503.94434	-140.43716	183.01790	2255.34082	17.10723	177.09340	2635.36987	
